Coordinates
version=1
nRows=5
nColumns=40
inDegrees=yes

Units are S.I. units (second, meters, Newtons, ...)
Angles are in degrees.

endheader
time	pelvis_tilt	pelvis_list	pelvis_rotation	pelvis_tx	pelvis_ty	pelvis_tz	hip_flexion_r	hip_adduction_r	hip_rotation_r	knee_angle_r	knee_angle_r_beta	ankle_angle_r	subtalar_angle_r	mtp_angle_r	hip_flexion_l	hip_adduction_l	hip_rotation_l	knee_angle_l	knee_angle_l_beta	ankle_angle_l	subtalar_angle_l	mtp_angle_l	lumbar_extension	lumbar_bending	lumbar_rotation	arm_flex_r	arm_add_r	arm_rot_r	elbow_flex_r	pro_sup_r	wrist_flex_r	wrist_dev_r	arm_flex_l	arm_add_l	arm_rot_l	elbow_flex_l	pro_sup_l	wrist_flex_l	wrist_dev_l
      1.61000000	     -4.41810156	     -6.70253033	      7.29125059	      1.00046156	      0.92264594	      0.53719332	     -0.33579733	      7.27685472	    -20.71593359	      5.28204955	      5.28204955	     12.43730418	      3.88389359	     -9.18822552	     28.04161238	    -10.10578562	     -3.16943252	     16.04431377	     16.04431377	      0.93856849	     -6.23990275	      0.86731959	     -8.01058388	      5.99795767	      3.44768435	     38.63222211	    -19.25467571	    -16.00670358	     93.12573838	     44.70513642	      0.00000000	      0.00000000	    -12.30277935	     -7.41221098	     -1.07907021	     27.89271788	     45.42296050	      0.00000000	      0.00000000
      1.62757143	     -4.37493371	     -6.55846549	      7.45796032	      1.00192357	      0.92205575	      0.53435144	     -0.79781038	      6.99180461	    -20.61523971	      5.48041023	      5.48041023	     12.90184709	      3.55120012	     -9.07662293	     27.94011486	     -9.84769103	     -3.13391230	     16.82119931	     16.82119931	      0.61000693	     -6.75580194	      0.62467196	     -7.88890309	      5.57244823	      3.44436316	     38.91976237	    -19.13909110	    -15.93833060	     93.53417335	     44.69522078	      0.00000000	      0.00000000	    -11.80639586	     -7.58788349	     -1.13800440	     28.13108378	     45.44406173	      0.00000000	      0.00000000
      1.64514286	     -4.43313703	     -6.48796975	      7.62428071	      1.00326572	      0.92130065	      0.53128541	     -0.94858475	      6.71553976	    -20.26834643	      6.04675741	      6.04675741	     13.59507637	      2.64887378	     -8.43652046	     28.06402922	     -9.56278016	     -2.63390785	     17.74868012	     17.74868012	      0.25901543	     -7.83771819	      0.06067107	     -7.68278848	      5.28390010	      3.47418441	     39.00459583	    -19.09078306	    -15.91943548	     94.41178479	     44.67992007	      0.00000000	      0.00000000	    -11.23094173	     -7.69357254	     -1.33961643	     28.67599715	     45.49391014	      0.00000000	      0.00000000
      1.66271429	     -4.28726653	     -6.19900260	      7.74871811	      1.00491138	      0.92105128	      0.52794479	     -1.50506011	      6.24097814	    -20.14297871	      6.33574714	      6.33574714	     14.01843032	      2.26314751	     -8.25849649	     27.88044986	     -9.13461930	     -2.50119026	     18.70211863	     18.70211863	      0.35321115	     -8.46036166	     -0.21492431	     -7.71957259	      4.76633288	      3.51562801	     39.07997502	    -18.98205050	    -15.86267465	     94.57227516	     44.67688060	      0.00000000	      0.00000000	    -10.52572228	     -7.86990737	     -1.42181659	     29.02717266	     45.52047849	      0.00000000	      0.00000000
      1.68028571	     -4.31433693	     -5.99679513	      7.82264767	      1.00634239	      0.92058582	      0.52447435	     -1.57501243	      5.76739949	    -19.55724772	      7.18954322	      7.18954322	     14.84609295	      1.03210719	     -6.95278112	     27.94930665	     -8.64365810	     -1.77719762	     19.71652212	     19.71652212	      0.45761927	     -9.89280003	     -0.35913835	     -7.57370596	      4.37306947	      3.76334539	     38.87517208	    -19.12758149	    -15.97968708	     95.14262839	     44.68199973	      0.00000000	      0.00000000	     -9.79402240	     -7.93637695	     -1.86040712	     29.93792348	     45.60887073	      0.00000000	      0.00000000
